<mxfile host="Electron" agent="Mozilla/5.0 (Windows NT 10.0; Win64; x64) AppleWebKit/537.36 (KHTML, like Gecko) draw.io/27.0.9 Chrome/134.0.6998.205 Electron/35.4.0 Safari/537.36" version="27.0.9">
  <diagram name="P치gina-1" id="jV6chOsO4QXzJaD2HEE3">
    <mxGraphModel dx="1489" dy="2063" grid="1" gridSize="10" guides="1" tooltips="1" connect="1" arrows="1" fold="1" page="1" pageScale="1" pageWidth="827" pageHeight="1169" math="0" shadow="0">
      <root>
        <mxCell id="0" />
        <mxCell id="1" parent="0" />
        <mxCell id="fHk8GACOE2aEq0Yxl9_8-32" value="2" style="shape=rect;html=1;verticalAlign=top;fontStyle=1;whiteSpace=wrap;align=center;" vertex="1" parent="1">
          <mxGeometry x="180" y="390" width="1110" height="740" as="geometry" />
        </mxCell>
        <mxCell id="fHk8GACOE2aEq0Yxl9_8-2" value="Clinica veterinaria (Login)" style="shape=rect;html=1;verticalAlign=top;fontStyle=1;whiteSpace=wrap;align=center;" vertex="1" parent="1">
          <mxGeometry x="110" y="-220" width="1470" height="500" as="geometry" />
        </mxCell>
        <mxCell id="fHk8GACOE2aEq0Yxl9_8-4" style="edgeStyle=orthogonalEdgeStyle;rounded=0;orthogonalLoop=1;jettySize=auto;html=1;entryX=0;entryY=0.5;entryDx=0;entryDy=0;" edge="1" parent="1" source="fHk8GACOE2aEq0Yxl9_8-1" target="fHk8GACOE2aEq0Yxl9_8-3">
          <mxGeometry relative="1" as="geometry" />
        </mxCell>
        <mxCell id="fHk8GACOE2aEq0Yxl9_8-1" value="Usuario" style="shape=umlActor;html=1;verticalLabelPosition=bottom;verticalAlign=top;align=center;" vertex="1" parent="1">
          <mxGeometry x="50" y="-15" width="30" height="60" as="geometry" />
        </mxCell>
        <mxCell id="fHk8GACOE2aEq0Yxl9_8-3" value="Login de la pagina" style="ellipse;whiteSpace=wrap;html=1;" vertex="1" parent="1">
          <mxGeometry x="170" y="-20" width="140" height="70" as="geometry" />
        </mxCell>
        <mxCell id="fHk8GACOE2aEq0Yxl9_8-7" value="&amp;lt;&amp;lt;extend&amp;gt;&amp;gt;" style="edgeStyle=none;html=1;startArrow=open;endArrow=none;startSize=12;verticalAlign=bottom;dashed=1;labelBackgroundColor=none;rounded=0;entryX=1;entryY=0.5;entryDx=0;entryDy=0;exitX=0.5;exitY=1;exitDx=0;exitDy=0;" edge="1" parent="1" source="fHk8GACOE2aEq0Yxl9_8-8" target="fHk8GACOE2aEq0Yxl9_8-3">
          <mxGeometry width="160" relative="1" as="geometry">
            <mxPoint x="210" y="-50" as="sourcePoint" />
            <mxPoint x="370" y="-50" as="targetPoint" />
          </mxGeometry>
        </mxCell>
        <mxCell id="fHk8GACOE2aEq0Yxl9_8-8" value="Registrarse" style="ellipse;whiteSpace=wrap;html=1;" vertex="1" parent="1">
          <mxGeometry x="370" y="-160" width="140" height="70" as="geometry" />
        </mxCell>
        <mxCell id="fHk8GACOE2aEq0Yxl9_8-9" value="Iniciar sesi칩n" style="ellipse;whiteSpace=wrap;html=1;" vertex="1" parent="1">
          <mxGeometry x="370" y="140" width="140" height="70" as="geometry" />
        </mxCell>
        <mxCell id="fHk8GACOE2aEq0Yxl9_8-10" value="&amp;lt;&amp;lt;extend&amp;gt;&amp;gt;" style="edgeStyle=none;html=1;startArrow=open;endArrow=none;startSize=12;verticalAlign=bottom;dashed=1;labelBackgroundColor=none;rounded=0;entryX=1;entryY=0.5;entryDx=0;entryDy=0;exitX=0.5;exitY=0;exitDx=0;exitDy=0;" edge="1" parent="1" source="fHk8GACOE2aEq0Yxl9_8-9" target="fHk8GACOE2aEq0Yxl9_8-3">
          <mxGeometry width="160" relative="1" as="geometry">
            <mxPoint x="300" y="50" as="sourcePoint" />
            <mxPoint x="460" y="50" as="targetPoint" />
          </mxGeometry>
        </mxCell>
        <mxCell id="fHk8GACOE2aEq0Yxl9_8-17" value="" style="edgeStyle=orthogonalEdgeStyle;rounded=0;orthogonalLoop=1;jettySize=auto;html=1;" edge="1" parent="1" source="fHk8GACOE2aEq0Yxl9_8-12" target="fHk8GACOE2aEq0Yxl9_8-16">
          <mxGeometry relative="1" as="geometry" />
        </mxCell>
        <mxCell id="fHk8GACOE2aEq0Yxl9_8-12" value="Ingreso de Datos" style="ellipse;whiteSpace=wrap;html=1;" vertex="1" parent="1">
          <mxGeometry x="650" y="-160" width="140" height="70" as="geometry" />
        </mxCell>
        <mxCell id="fHk8GACOE2aEq0Yxl9_8-13" value="&amp;lt;&amp;lt;extend&amp;gt;&amp;gt;" style="edgeStyle=none;html=1;startArrow=open;endArrow=none;startSize=12;verticalAlign=bottom;dashed=1;labelBackgroundColor=none;rounded=0;entryX=1;entryY=0.5;entryDx=0;entryDy=0;exitX=0;exitY=0.5;exitDx=0;exitDy=0;" edge="1" parent="1" source="fHk8GACOE2aEq0Yxl9_8-12" target="fHk8GACOE2aEq0Yxl9_8-8">
          <mxGeometry width="160" relative="1" as="geometry">
            <mxPoint x="530" y="-120" as="sourcePoint" />
            <mxPoint x="690" y="-120" as="targetPoint" />
          </mxGeometry>
        </mxCell>
        <mxCell id="fHk8GACOE2aEq0Yxl9_8-14" value="&amp;lt;&amp;lt;extend&amp;gt;&amp;gt;" style="edgeStyle=none;html=1;startArrow=open;endArrow=none;startSize=12;verticalAlign=bottom;dashed=1;labelBackgroundColor=none;rounded=0;entryX=0;entryY=0.5;entryDx=0;entryDy=0;exitX=0.5;exitY=0;exitDx=0;exitDy=0;" edge="1" parent="1" source="fHk8GACOE2aEq0Yxl9_8-3" target="fHk8GACOE2aEq0Yxl9_8-8">
          <mxGeometry width="160" relative="1" as="geometry">
            <mxPoint x="200" y="-120" as="sourcePoint" />
            <mxPoint x="360" y="-120" as="targetPoint" />
          </mxGeometry>
        </mxCell>
        <mxCell id="fHk8GACOE2aEq0Yxl9_8-15" value="&amp;lt;&amp;lt;extend&amp;gt;&amp;gt;" style="edgeStyle=none;html=1;startArrow=open;endArrow=none;startSize=12;verticalAlign=bottom;dashed=1;labelBackgroundColor=none;rounded=0;entryX=0;entryY=0.5;entryDx=0;entryDy=0;exitX=0.5;exitY=1;exitDx=0;exitDy=0;" edge="1" parent="1" source="fHk8GACOE2aEq0Yxl9_8-3" target="fHk8GACOE2aEq0Yxl9_8-9">
          <mxGeometry width="160" relative="1" as="geometry">
            <mxPoint x="200" y="200" as="sourcePoint" />
            <mxPoint x="360" y="200" as="targetPoint" />
          </mxGeometry>
        </mxCell>
        <mxCell id="fHk8GACOE2aEq0Yxl9_8-16" value="Validaci칩n de Datos" style="ellipse;whiteSpace=wrap;html=1;" vertex="1" parent="1">
          <mxGeometry x="870" y="-160" width="140" height="70" as="geometry" />
        </mxCell>
        <mxCell id="fHk8GACOE2aEq0Yxl9_8-18" value="&amp;lt;&amp;lt;include&amp;gt;&amp;gt;" style="edgeStyle=none;html=1;endArrow=open;verticalAlign=bottom;dashed=1;labelBackgroundColor=none;rounded=0;exitX=1;exitY=0.5;exitDx=0;exitDy=0;entryX=0;entryY=0.5;entryDx=0;entryDy=0;" edge="1" parent="1" source="fHk8GACOE2aEq0Yxl9_8-16" target="fHk8GACOE2aEq0Yxl9_8-19">
          <mxGeometry width="160" relative="1" as="geometry">
            <mxPoint x="1030" y="-125.71" as="sourcePoint" />
            <mxPoint x="1130" y="-120" as="targetPoint" />
          </mxGeometry>
        </mxCell>
        <mxCell id="fHk8GACOE2aEq0Yxl9_8-21" value="" style="edgeStyle=orthogonalEdgeStyle;rounded=0;orthogonalLoop=1;jettySize=auto;html=1;" edge="1" parent="1" source="fHk8GACOE2aEq0Yxl9_8-19" target="fHk8GACOE2aEq0Yxl9_8-20">
          <mxGeometry relative="1" as="geometry" />
        </mxCell>
        <mxCell id="fHk8GACOE2aEq0Yxl9_8-19" value="Autenticaci칩n" style="ellipse;whiteSpace=wrap;html=1;" vertex="1" parent="1">
          <mxGeometry x="1140" y="-160" width="140" height="70" as="geometry" />
        </mxCell>
        <mxCell id="fHk8GACOE2aEq0Yxl9_8-20" value="Logeo exitoso" style="ellipse;whiteSpace=wrap;html=1;" vertex="1" parent="1">
          <mxGeometry x="1350" y="-160" width="140" height="70" as="geometry" />
        </mxCell>
        <mxCell id="fHk8GACOE2aEq0Yxl9_8-22" value="&amp;lt;&amp;lt;extend&amp;gt;&amp;gt;" style="edgeStyle=none;html=1;startArrow=open;endArrow=none;startSize=12;verticalAlign=bottom;dashed=1;labelBackgroundColor=none;rounded=0;entryX=1;entryY=0.5;entryDx=0;entryDy=0;exitX=0;exitY=0.5;exitDx=0;exitDy=0;" edge="1" parent="1" source="fHk8GACOE2aEq0Yxl9_8-23" target="fHk8GACOE2aEq0Yxl9_8-9">
          <mxGeometry width="160" relative="1" as="geometry">
            <mxPoint x="590" y="180" as="sourcePoint" />
            <mxPoint x="750" y="180" as="targetPoint" />
          </mxGeometry>
        </mxCell>
        <mxCell id="fHk8GACOE2aEq0Yxl9_8-24" style="edgeStyle=orthogonalEdgeStyle;rounded=0;orthogonalLoop=1;jettySize=auto;html=1;entryX=0.5;entryY=1;entryDx=0;entryDy=0;" edge="1" parent="1" source="fHk8GACOE2aEq0Yxl9_8-23" target="fHk8GACOE2aEq0Yxl9_8-20">
          <mxGeometry relative="1" as="geometry" />
        </mxCell>
        <mxCell id="fHk8GACOE2aEq0Yxl9_8-23" value="Ingreso de datos" style="ellipse;whiteSpace=wrap;html=1;" vertex="1" parent="1">
          <mxGeometry x="650" y="140" width="140" height="70" as="geometry" />
        </mxCell>
        <mxCell id="fHk8GACOE2aEq0Yxl9_8-34" style="edgeStyle=orthogonalEdgeStyle;rounded=0;orthogonalLoop=1;jettySize=auto;html=1;entryX=0;entryY=0.5;entryDx=0;entryDy=0;" edge="1" parent="1" source="fHk8GACOE2aEq0Yxl9_8-26" target="fHk8GACOE2aEq0Yxl9_8-33">
          <mxGeometry relative="1" as="geometry" />
        </mxCell>
        <mxCell id="fHk8GACOE2aEq0Yxl9_8-26" value="Cliente" style="shape=umlActor;html=1;verticalLabelPosition=bottom;verticalAlign=top;align=center;" vertex="1" parent="1">
          <mxGeometry x="50" y="425" width="30" height="60" as="geometry" />
        </mxCell>
        <mxCell id="fHk8GACOE2aEq0Yxl9_8-33" value="Index" style="ellipse;whiteSpace=wrap;html=1;" vertex="1" parent="1">
          <mxGeometry x="200" y="420" width="80" height="70" as="geometry" />
        </mxCell>
        <mxCell id="fHk8GACOE2aEq0Yxl9_8-35" value="&amp;lt;&amp;lt;extend&amp;gt;&amp;gt;" style="edgeStyle=none;html=1;startArrow=open;endArrow=none;startSize=12;verticalAlign=bottom;dashed=1;labelBackgroundColor=none;rounded=0;entryX=1;entryY=0.5;entryDx=0;entryDy=0;exitX=0;exitY=0.5;exitDx=0;exitDy=0;" edge="1" parent="1" source="fHk8GACOE2aEq0Yxl9_8-36" target="fHk8GACOE2aEq0Yxl9_8-33">
          <mxGeometry width="160" relative="1" as="geometry">
            <mxPoint x="280" y="520" as="sourcePoint" />
            <mxPoint x="440" y="520" as="targetPoint" />
          </mxGeometry>
        </mxCell>
        <mxCell id="fHk8GACOE2aEq0Yxl9_8-47" value="" style="edgeStyle=orthogonalEdgeStyle;rounded=0;orthogonalLoop=1;jettySize=auto;html=1;" edge="1" parent="1" source="fHk8GACOE2aEq0Yxl9_8-36" target="fHk8GACOE2aEq0Yxl9_8-46">
          <mxGeometry relative="1" as="geometry" />
        </mxCell>
        <mxCell id="fHk8GACOE2aEq0Yxl9_8-36" value="Sacar_Turno" style="ellipse;whiteSpace=wrap;html=1;" vertex="1" parent="1">
          <mxGeometry x="610" y="420" width="80" height="70" as="geometry" />
        </mxCell>
        <mxCell id="fHk8GACOE2aEq0Yxl9_8-37" value="&amp;lt;&amp;lt;extend&amp;gt;&amp;gt;" style="edgeStyle=none;html=1;startArrow=open;endArrow=none;startSize=12;verticalAlign=bottom;dashed=1;labelBackgroundColor=none;rounded=0;entryX=1;entryY=1;entryDx=0;entryDy=0;exitX=0;exitY=0.5;exitDx=0;exitDy=0;" edge="1" parent="1" source="fHk8GACOE2aEq0Yxl9_8-38" target="fHk8GACOE2aEq0Yxl9_8-33">
          <mxGeometry width="160" relative="1" as="geometry">
            <mxPoint x="230" y="570" as="sourcePoint" />
            <mxPoint x="390" y="570" as="targetPoint" />
          </mxGeometry>
        </mxCell>
        <mxCell id="fHk8GACOE2aEq0Yxl9_8-38" value="Consultar_Historial_Cl칤nico" style="ellipse;whiteSpace=wrap;html=1;" vertex="1" parent="1">
          <mxGeometry x="573.75" y="510" width="152.5" height="105" as="geometry" />
        </mxCell>
        <mxCell id="fHk8GACOE2aEq0Yxl9_8-41" value="&amp;lt;&amp;lt;extend&amp;gt;&amp;gt;" style="edgeStyle=none;html=1;startArrow=open;endArrow=none;startSize=12;verticalAlign=bottom;dashed=1;labelBackgroundColor=none;rounded=0;entryX=0.5;entryY=1;entryDx=0;entryDy=0;exitX=0;exitY=0.5;exitDx=0;exitDy=0;" edge="1" parent="1" source="fHk8GACOE2aEq0Yxl9_8-42" target="fHk8GACOE2aEq0Yxl9_8-33">
          <mxGeometry width="160" relative="1" as="geometry">
            <mxPoint x="320" y="540" as="sourcePoint" />
            <mxPoint x="480" y="540" as="targetPoint" />
          </mxGeometry>
        </mxCell>
        <mxCell id="fHk8GACOE2aEq0Yxl9_8-42" value="Notificaciones" style="ellipse;whiteSpace=wrap;html=1;" vertex="1" parent="1">
          <mxGeometry x="580" y="635" width="140" height="70" as="geometry" />
        </mxCell>
        <mxCell id="fHk8GACOE2aEq0Yxl9_8-49" value="" style="edgeStyle=orthogonalEdgeStyle;rounded=0;orthogonalLoop=1;jettySize=auto;html=1;" edge="1" parent="1" source="fHk8GACOE2aEq0Yxl9_8-46" target="fHk8GACOE2aEq0Yxl9_8-48">
          <mxGeometry relative="1" as="geometry" />
        </mxCell>
        <mxCell id="fHk8GACOE2aEq0Yxl9_8-46" value="Horarios" style="ellipse;whiteSpace=wrap;html=1;" vertex="1" parent="1">
          <mxGeometry x="770" y="420" width="80" height="70" as="geometry" />
        </mxCell>
        <mxCell id="fHk8GACOE2aEq0Yxl9_8-48" value="Agendar_Turno" style="ellipse;whiteSpace=wrap;html=1;" vertex="1" parent="1">
          <mxGeometry x="920" y="420" width="140" height="70" as="geometry" />
        </mxCell>
        <mxCell id="fHk8GACOE2aEq0Yxl9_8-50" value="Informaci칩n/Detalles" style="ellipse;whiteSpace=wrap;html=1;" vertex="1" parent="1">
          <mxGeometry x="920" y="527.5" width="140" height="70" as="geometry" />
        </mxCell>
        <mxCell id="fHk8GACOE2aEq0Yxl9_8-51" value="&amp;lt;&amp;lt;extend&amp;gt;&amp;gt;" style="edgeStyle=none;html=1;startArrow=open;endArrow=none;startSize=12;verticalAlign=bottom;dashed=1;labelBackgroundColor=none;rounded=0;entryX=1;entryY=0.5;entryDx=0;entryDy=0;exitX=0;exitY=0.5;exitDx=0;exitDy=0;" edge="1" parent="1" source="fHk8GACOE2aEq0Yxl9_8-50" target="fHk8GACOE2aEq0Yxl9_8-38">
          <mxGeometry width="160" relative="1" as="geometry">
            <mxPoint x="710" y="640" as="sourcePoint" />
            <mxPoint x="870" y="640" as="targetPoint" />
          </mxGeometry>
        </mxCell>
        <mxCell id="fHk8GACOE2aEq0Yxl9_8-52" value="Visualizaci칩n" style="ellipse;whiteSpace=wrap;html=1;" vertex="1" parent="1">
          <mxGeometry x="1070" y="650" width="140" height="70" as="geometry" />
        </mxCell>
        <mxCell id="fHk8GACOE2aEq0Yxl9_8-53" value="&amp;lt;&amp;lt;extend&amp;gt;&amp;gt;" style="edgeStyle=none;html=1;startArrow=open;endArrow=none;startSize=12;verticalAlign=bottom;dashed=1;labelBackgroundColor=none;rounded=0;entryX=1;entryY=0.5;entryDx=0;entryDy=0;exitX=0;exitY=0.5;exitDx=0;exitDy=0;" edge="1" parent="1" source="fHk8GACOE2aEq0Yxl9_8-52" target="fHk8GACOE2aEq0Yxl9_8-42">
          <mxGeometry width="160" relative="1" as="geometry">
            <mxPoint x="660" y="750" as="sourcePoint" />
            <mxPoint x="820" y="750" as="targetPoint" />
            <Array as="points">
              <mxPoint x="860" y="700" />
            </Array>
          </mxGeometry>
        </mxCell>
        <mxCell id="fHk8GACOE2aEq0Yxl9_8-55" value="&amp;lt;&amp;lt;include&amp;gt;&amp;gt;" style="edgeStyle=none;html=1;endArrow=open;verticalAlign=bottom;dashed=1;labelBackgroundColor=none;rounded=0;exitX=1;exitY=0.5;exitDx=0;exitDy=0;entryX=0;entryY=0.5;entryDx=0;entryDy=0;" edge="1" parent="1" source="fHk8GACOE2aEq0Yxl9_8-48" target="fHk8GACOE2aEq0Yxl9_8-56">
          <mxGeometry width="160" relative="1" as="geometry">
            <mxPoint x="1100" y="450" as="sourcePoint" />
            <mxPoint x="1140" y="455" as="targetPoint" />
          </mxGeometry>
        </mxCell>
        <mxCell id="fHk8GACOE2aEq0Yxl9_8-56" value="Notificaci칩n" style="ellipse;whiteSpace=wrap;html=1;" vertex="1" parent="1">
          <mxGeometry x="1140" y="420" width="140" height="70" as="geometry" />
        </mxCell>
        <mxCell id="fHk8GACOE2aEq0Yxl9_8-64" style="edgeStyle=orthogonalEdgeStyle;rounded=0;orthogonalLoop=1;jettySize=auto;html=1;entryX=0;entryY=0.5;entryDx=0;entryDy=0;" edge="1" parent="1" source="fHk8GACOE2aEq0Yxl9_8-62" target="fHk8GACOE2aEq0Yxl9_8-63">
          <mxGeometry relative="1" as="geometry" />
        </mxCell>
        <mxCell id="fHk8GACOE2aEq0Yxl9_8-62" value="M칠dico_Veterinario" style="shape=umlActor;html=1;verticalLabelPosition=bottom;verticalAlign=top;align=center;" vertex="1" parent="1">
          <mxGeometry x="50" y="742.5" width="30" height="60" as="geometry" />
        </mxCell>
        <mxCell id="fHk8GACOE2aEq0Yxl9_8-63" value="Index" style="ellipse;whiteSpace=wrap;html=1;" vertex="1" parent="1">
          <mxGeometry x="200" y="735" width="80" height="75" as="geometry" />
        </mxCell>
        <mxCell id="fHk8GACOE2aEq0Yxl9_8-65" value="Turnos_Disponibles" style="ellipse;whiteSpace=wrap;html=1;" vertex="1" parent="1">
          <mxGeometry x="380" y="738" width="140" height="70" as="geometry" />
        </mxCell>
        <mxCell id="fHk8GACOE2aEq0Yxl9_8-66" value="&amp;lt;&amp;lt;extend&amp;gt;&amp;gt;" style="edgeStyle=none;html=1;startArrow=open;endArrow=none;startSize=12;verticalAlign=bottom;dashed=1;labelBackgroundColor=none;rounded=0;entryX=1;entryY=0.5;entryDx=0;entryDy=0;exitX=0;exitY=0.5;exitDx=0;exitDy=0;" edge="1" parent="1" source="fHk8GACOE2aEq0Yxl9_8-65" target="fHk8GACOE2aEq0Yxl9_8-63">
          <mxGeometry width="160" relative="1" as="geometry">
            <mxPoint x="300" y="850" as="sourcePoint" />
            <mxPoint x="460" y="850" as="targetPoint" />
          </mxGeometry>
        </mxCell>
        <mxCell id="fHk8GACOE2aEq0Yxl9_8-67" value="Consultas_Pendientes" style="ellipse;whiteSpace=wrap;html=1;" vertex="1" parent="1">
          <mxGeometry x="380" y="880" width="140" height="70" as="geometry" />
        </mxCell>
        <mxCell id="fHk8GACOE2aEq0Yxl9_8-68" value="&amp;lt;&amp;lt;extend&amp;gt;&amp;gt;" style="edgeStyle=none;html=1;startArrow=open;endArrow=none;startSize=12;verticalAlign=bottom;dashed=1;labelBackgroundColor=none;rounded=0;entryX=1;entryY=1;entryDx=0;entryDy=0;exitX=0;exitY=0.5;exitDx=0;exitDy=0;" edge="1" parent="1" source="fHk8GACOE2aEq0Yxl9_8-67" target="fHk8GACOE2aEq0Yxl9_8-63">
          <mxGeometry width="160" relative="1" as="geometry">
            <mxPoint x="230" y="880" as="sourcePoint" />
            <mxPoint x="390" y="880" as="targetPoint" />
          </mxGeometry>
        </mxCell>
        <mxCell id="fHk8GACOE2aEq0Yxl9_8-69" value="Notificaci칩nes" style="ellipse;whiteSpace=wrap;html=1;" vertex="1" parent="1">
          <mxGeometry x="195" y="960" width="90" height="70" as="geometry" />
        </mxCell>
        <mxCell id="fHk8GACOE2aEq0Yxl9_8-70" value="&amp;lt;&amp;lt;extend&amp;gt;&amp;gt;" style="edgeStyle=none;html=1;startArrow=open;endArrow=none;startSize=12;verticalAlign=bottom;dashed=1;labelBackgroundColor=none;rounded=0;entryX=0.5;entryY=1;entryDx=0;entryDy=0;exitX=0.5;exitY=0;exitDx=0;exitDy=0;" edge="1" parent="1" source="fHk8GACOE2aEq0Yxl9_8-69" target="fHk8GACOE2aEq0Yxl9_8-63">
          <mxGeometry width="160" relative="1" as="geometry">
            <mxPoint x="200" y="910" as="sourcePoint" />
            <mxPoint x="360" y="910" as="targetPoint" />
          </mxGeometry>
        </mxCell>
        <mxCell id="fHk8GACOE2aEq0Yxl9_8-71" value="Datos_Cliente" style="ellipse;whiteSpace=wrap;html=1;" vertex="1" parent="1">
          <mxGeometry x="620" y="960" width="140" height="70" as="geometry" />
        </mxCell>
        <mxCell id="fHk8GACOE2aEq0Yxl9_8-72" value="&amp;lt;&amp;lt;extend&amp;gt;&amp;gt;" style="edgeStyle=none;html=1;startArrow=open;endArrow=none;startSize=12;verticalAlign=bottom;dashed=1;labelBackgroundColor=none;rounded=0;entryX=1;entryY=0.5;entryDx=0;entryDy=0;exitX=0;exitY=0.5;exitDx=0;exitDy=0;" edge="1" parent="1" source="fHk8GACOE2aEq0Yxl9_8-71" target="fHk8GACOE2aEq0Yxl9_8-67">
          <mxGeometry width="160" relative="1" as="geometry">
            <mxPoint x="490" y="960" as="sourcePoint" />
            <mxPoint x="650" y="960" as="targetPoint" />
          </mxGeometry>
        </mxCell>
        <mxCell id="fHk8GACOE2aEq0Yxl9_8-75" value="Informaci칩n/Detalles" style="ellipse;whiteSpace=wrap;html=1;" vertex="1" parent="1">
          <mxGeometry x="380" y="960" width="140" height="70" as="geometry" />
        </mxCell>
        <mxCell id="fHk8GACOE2aEq0Yxl9_8-76" value="&amp;lt;&amp;lt;extend&amp;gt;&amp;gt;" style="edgeStyle=none;html=1;startArrow=open;endArrow=none;startSize=12;verticalAlign=bottom;dashed=1;labelBackgroundColor=none;rounded=0;entryX=1;entryY=0.5;entryDx=0;entryDy=0;exitX=0;exitY=0.5;exitDx=0;exitDy=0;" edge="1" parent="1" source="fHk8GACOE2aEq0Yxl9_8-75" target="fHk8GACOE2aEq0Yxl9_8-69">
          <mxGeometry width="160" relative="1" as="geometry">
            <mxPoint x="260" y="1070" as="sourcePoint" />
            <mxPoint x="420" y="1070" as="targetPoint" />
          </mxGeometry>
        </mxCell>
        <mxCell id="fHk8GACOE2aEq0Yxl9_8-77" value="Cancelar_Consulta" style="ellipse;whiteSpace=wrap;html=1;" vertex="1" parent="1">
          <mxGeometry x="620" y="830" width="140" height="70" as="geometry" />
        </mxCell>
        <mxCell id="fHk8GACOE2aEq0Yxl9_8-78" value="&amp;lt;&amp;lt;extend&amp;gt;&amp;gt;" style="edgeStyle=none;html=1;startArrow=open;endArrow=none;startSize=12;verticalAlign=bottom;dashed=1;labelBackgroundColor=none;rounded=0;entryX=1;entryY=0;entryDx=0;entryDy=0;exitX=0;exitY=0.5;exitDx=0;exitDy=0;" edge="1" parent="1" source="fHk8GACOE2aEq0Yxl9_8-77" target="fHk8GACOE2aEq0Yxl9_8-67">
          <mxGeometry width="160" relative="1" as="geometry">
            <mxPoint x="410" y="860" as="sourcePoint" />
            <mxPoint x="570" y="860" as="targetPoint" />
          </mxGeometry>
        </mxCell>
        <mxCell id="fHk8GACOE2aEq0Yxl9_8-79" value="Use Case" style="ellipse;whiteSpace=wrap;html=1;" vertex="1" parent="1">
          <mxGeometry x="1140" y="540" width="140" height="70" as="geometry" />
        </mxCell>
        <mxCell id="fHk8GACOE2aEq0Yxl9_8-80" value="&amp;lt;&amp;lt;extend&amp;gt;&amp;gt;" style="edgeStyle=none;html=1;startArrow=open;endArrow=none;startSize=12;verticalAlign=bottom;dashed=1;labelBackgroundColor=none;rounded=0;entryX=0.5;entryY=1;entryDx=0;entryDy=0;exitX=0.5;exitY=0;exitDx=0;exitDy=0;" edge="1" parent="1" source="fHk8GACOE2aEq0Yxl9_8-79" target="fHk8GACOE2aEq0Yxl9_8-56">
          <mxGeometry width="160" relative="1" as="geometry">
            <mxPoint x="1080" y="680" as="sourcePoint" />
            <mxPoint x="1240" y="680" as="targetPoint" />
          </mxGeometry>
        </mxCell>
        <mxCell id="fHk8GACOE2aEq0Yxl9_8-81" value="&amp;lt;&amp;lt;extend&amp;gt;&amp;gt;" style="edgeStyle=none;html=1;startArrow=open;endArrow=none;startSize=12;verticalAlign=bottom;dashed=1;labelBackgroundColor=none;rounded=0;entryX=1;entryY=0.5;entryDx=0;entryDy=0;exitX=0.5;exitY=1;exitDx=0;exitDy=0;" edge="1" parent="1" source="fHk8GACOE2aEq0Yxl9_8-79" target="fHk8GACOE2aEq0Yxl9_8-52">
          <mxGeometry width="160" relative="1" as="geometry">
            <mxPoint x="970" y="770" as="sourcePoint" />
            <mxPoint x="1130" y="770" as="targetPoint" />
          </mxGeometry>
        </mxCell>
        <mxCell id="fHk8GACOE2aEq0Yxl9_8-83" value="&amp;lt;&amp;lt;extend&amp;gt;&amp;gt;" style="edgeStyle=none;html=1;startArrow=open;endArrow=none;startSize=12;verticalAlign=bottom;dashed=1;labelBackgroundColor=none;rounded=0;entryX=1;entryY=0.5;entryDx=0;entryDy=0;exitX=0;exitY=0.5;exitDx=0;exitDy=0;" edge="1" parent="1" source="fHk8GACOE2aEq0Yxl9_8-84" target="fHk8GACOE2aEq0Yxl9_8-65">
          <mxGeometry width="160" relative="1" as="geometry">
            <mxPoint x="820" y="880" as="sourcePoint" />
            <mxPoint x="980" y="880" as="targetPoint" />
            <Array as="points" />
          </mxGeometry>
        </mxCell>
        <mxCell id="fHk8GACOE2aEq0Yxl9_8-84" value="Aceptar_Consulta" style="ellipse;whiteSpace=wrap;html=1;" vertex="1" parent="1">
          <mxGeometry x="620" y="738" width="140" height="70" as="geometry" />
        </mxCell>
        <mxCell id="fHk8GACOE2aEq0Yxl9_8-88" style="edgeStyle=orthogonalEdgeStyle;rounded=0;orthogonalLoop=1;jettySize=auto;html=1;entryX=1;entryY=0.5;entryDx=0;entryDy=0;" edge="1" parent="1" source="fHk8GACOE2aEq0Yxl9_8-86" target="fHk8GACOE2aEq0Yxl9_8-87">
          <mxGeometry relative="1" as="geometry" />
        </mxCell>
        <mxCell id="fHk8GACOE2aEq0Yxl9_8-86" value="Administrador" style="shape=umlActor;html=1;verticalLabelPosition=bottom;verticalAlign=top;align=center;" vertex="1" parent="1">
          <mxGeometry x="1390" y="730" width="30" height="60" as="geometry" />
        </mxCell>
        <mxCell id="fHk8GACOE2aEq0Yxl9_8-90" value="" style="edgeStyle=orthogonalEdgeStyle;rounded=0;orthogonalLoop=1;jettySize=auto;html=1;" edge="1" parent="1" source="fHk8GACOE2aEq0Yxl9_8-87" target="fHk8GACOE2aEq0Yxl9_8-89">
          <mxGeometry relative="1" as="geometry" />
        </mxCell>
        <mxCell id="fHk8GACOE2aEq0Yxl9_8-87" value="Index" style="ellipse;whiteSpace=wrap;html=1;" vertex="1" parent="1">
          <mxGeometry x="1160" y="722.5" width="85" height="75" as="geometry" />
        </mxCell>
        <mxCell id="fHk8GACOE2aEq0Yxl9_8-101" style="edgeStyle=orthogonalEdgeStyle;rounded=0;orthogonalLoop=1;jettySize=auto;html=1;exitX=0.5;exitY=0;exitDx=0;exitDy=0;entryX=0.5;entryY=1;entryDx=0;entryDy=0;" edge="1" parent="1" source="fHk8GACOE2aEq0Yxl9_8-89" target="fHk8GACOE2aEq0Yxl9_8-50">
          <mxGeometry relative="1" as="geometry" />
        </mxCell>
        <mxCell id="fHk8GACOE2aEq0Yxl9_8-103" style="edgeStyle=orthogonalEdgeStyle;rounded=0;orthogonalLoop=1;jettySize=auto;html=1;entryX=1;entryY=0.5;entryDx=0;entryDy=0;" edge="1" parent="1" source="fHk8GACOE2aEq0Yxl9_8-89" target="fHk8GACOE2aEq0Yxl9_8-67">
          <mxGeometry relative="1" as="geometry">
            <Array as="points">
              <mxPoint x="1037" y="915" />
            </Array>
          </mxGeometry>
        </mxCell>
        <mxCell id="fHk8GACOE2aEq0Yxl9_8-89" value="Panel_Administrativo" style="ellipse;whiteSpace=wrap;html=1;" vertex="1" parent="1">
          <mxGeometry x="967" y="725" width="140" height="70" as="geometry" />
        </mxCell>
        <mxCell id="fHk8GACOE2aEq0Yxl9_8-91" value="&amp;lt;&amp;lt;extend&amp;gt;&amp;gt;" style="edgeStyle=none;html=1;startArrow=open;endArrow=none;startSize=12;verticalAlign=bottom;dashed=1;labelBackgroundColor=none;rounded=0;entryX=0.5;entryY=1;entryDx=0;entryDy=0;exitX=1;exitY=0.5;exitDx=0;exitDy=0;" edge="1" parent="1" source="fHk8GACOE2aEq0Yxl9_8-92" target="fHk8GACOE2aEq0Yxl9_8-89">
          <mxGeometry width="160" relative="1" as="geometry">
            <mxPoint x="1040" y="930" as="sourcePoint" />
            <mxPoint x="1200" y="930" as="targetPoint" />
          </mxGeometry>
        </mxCell>
        <mxCell id="fHk8GACOE2aEq0Yxl9_8-92" value="Generar_Reporte" style="ellipse;whiteSpace=wrap;html=1;" vertex="1" parent="1">
          <mxGeometry x="827" y="830" width="140" height="70" as="geometry" />
        </mxCell>
        <mxCell id="fHk8GACOE2aEq0Yxl9_8-93" value="Estad칤stica" style="ellipse;whiteSpace=wrap;html=1;" vertex="1" parent="1">
          <mxGeometry x="1060" y="830" width="140" height="70" as="geometry" />
        </mxCell>
        <mxCell id="fHk8GACOE2aEq0Yxl9_8-95" value="&amp;lt;&amp;lt;extend&amp;gt;&amp;gt;" style="edgeStyle=none;html=1;startArrow=open;endArrow=none;startSize=12;verticalAlign=bottom;dashed=1;labelBackgroundColor=none;rounded=0;entryX=0.786;entryY=0.929;entryDx=0;entryDy=0;entryPerimeter=0;exitX=0;exitY=0.5;exitDx=0;exitDy=0;" edge="1" parent="1" source="fHk8GACOE2aEq0Yxl9_8-93" target="fHk8GACOE2aEq0Yxl9_8-89">
          <mxGeometry width="160" relative="1" as="geometry">
            <mxPoint x="1000" y="960" as="sourcePoint" />
            <mxPoint x="1160" y="960" as="targetPoint" />
          </mxGeometry>
        </mxCell>
        <mxCell id="fHk8GACOE2aEq0Yxl9_8-96" value="Base_De_Datos" style="ellipse;whiteSpace=wrap;html=1;" vertex="1" parent="1">
          <mxGeometry x="780" y="725" width="140" height="70" as="geometry" />
        </mxCell>
        <mxCell id="fHk8GACOE2aEq0Yxl9_8-99" value="&amp;lt;&amp;lt;extend&amp;gt;&amp;gt;" style="edgeStyle=none;html=1;startArrow=open;endArrow=none;startSize=12;verticalAlign=bottom;dashed=1;labelBackgroundColor=none;rounded=0;exitX=1;exitY=0.5;exitDx=0;exitDy=0;entryX=0;entryY=0.5;entryDx=0;entryDy=0;" edge="1" parent="1" source="fHk8GACOE2aEq0Yxl9_8-96" target="fHk8GACOE2aEq0Yxl9_8-89">
          <mxGeometry width="160" relative="1" as="geometry">
            <mxPoint x="770" y="820" as="sourcePoint" />
            <mxPoint x="950" y="760" as="targetPoint" />
          </mxGeometry>
        </mxCell>
        <mxCell id="fHk8GACOE2aEq0Yxl9_8-100" value="&amp;lt;&amp;lt;extend&amp;gt;&amp;gt;" style="edgeStyle=none;html=1;startArrow=open;endArrow=none;startSize=12;verticalAlign=bottom;dashed=1;labelBackgroundColor=none;rounded=0;entryX=0.5;entryY=0;entryDx=0;entryDy=0;exitX=1;exitY=1;exitDx=0;exitDy=0;" edge="1" parent="1" source="fHk8GACOE2aEq0Yxl9_8-38" target="fHk8GACOE2aEq0Yxl9_8-89">
          <mxGeometry width="160" relative="1" as="geometry">
            <mxPoint x="770" y="710" as="sourcePoint" />
            <mxPoint x="930" y="710" as="targetPoint" />
          </mxGeometry>
        </mxCell>
      </root>
    </mxGraphModel>
  </diagram>
</mxfile>
